# xmcd CD database file
#
# Track frame offsets:
#	182
#	21105
#	35035
#	57115
#	73875
#	90765
#	103005
#	120487
#	134015
#	147320
#	164307
#	183547
#	198427
#	213910
#	233090
#	246442
#	268012
#	284567
#	296447
#	310200
#	330190
#
# Disc length: 4600 seconds
#
# Revision: 1
# Processed by: cddbd v1.5.2PL0 Copyright (c) Steve Scherf et al.
# Submitted via: CDex 1.50
#
DISCID=3c11f615
DTITLE=Country and Western Hits - The OLD WEST
DYEAR=1992
DGENRE=Country
TTITLE0=Willie
TTITLE1=I love you waltz
TTITLE2=Linda Lou and Bill
TTITLE3=Dear Abbey
TTITLE4=Run to him
TTITLE5=Finally my love
TTITLE6=The price of being free
TTITLE7=Mybe someday
TTITLE8=Poems once did rhyme
TTITLE9=Jack's song
TTITLE10=Goodbye again
TTITLE11=Vanished love
TTITLE12=I remember
TTITLE13=Jack the bum
TTITLE14=Call me Daddy one more time
TTITLE15=Charles song
TTITLE16=My broken heart
TTITLE17=Not again
TTITLE18=Positively the best way out
TTITLE19=Ponnsylvania
TTITLE20=Do not fear
EXTD=YEAR: 1992
EXTT0=
EXTT1=
EXTT2=
EXTT3=
EXTT4=
EXTT5=
EXTT6=
EXTT7=
EXTT8=
EXTT9=
EXTT10=
EXTT11=
EXTT12=
EXTT13=
EXTT14=
EXTT15=
EXTT16=
EXTT17=
EXTT18=
EXTT19=
EXTT20=
PLAYORDER=
